<svg xmlns="http://www.w3.org/2000/svg" width="119.5" height="144.4" preserveAspectRatio="none" viewBox="0 0 119.5 144.4">
  <title>a</title>
  <g id="Layer_1" data-name="Layer 1">
    <path d="M4.5,46.3a51.5,51.5,0,0,1,5.7-18.8,47.3,47.3,0,0,1,12-14.7A55.1,55.1,0,0,1,40,3.3,74.9,74.9,0,0,1,63.1,0c18,0,31.9,4.1,41.6,12.4s14.5,21.6,14.5,40v86.2a22.4,22.4,0,0,0,.3,3.4H92.8V127.8a49.9,49.9,0,0,1-17.1,12.3c-6.6,2.8-15.3,4.3-26,4.3a69.6,69.6,0,0,1-19.8-2.8,48.6,48.6,0,0,1-15.7-8.1A35.3,35.3,0,0,1,3.7,120.7,38.4,38.4,0,0,1,0,103.5C0,96,1.2,89.8,3.7,85A33.9,33.9,0,0,1,14.3,73a53.4,53.4,0,0,1,16.3-7.6c6.3-1.9,13.3-3.6,21-5.2l25.1-5.1A90.6,90.6,0,0,0,88,52.3c2.1-.8,3.2-3.3,3.2-7.4a18.5,18.5,0,0,0-7.8-15.5c-5.2-3.9-12-5.9-20.6-5.9S46,25.8,41.3,30.3s-7.6,10.6-8.7,18.1ZM92.2,74.9q-5.9,1.5-10.5,2.4c-3.1.5-6.8,1.2-10.8,2.1L52.8,83.2a54.4,54.4,0,0,0-12.7,4,18.8,18.8,0,0,0-7.6,6c-1.7,2.4-2.6,5.6-2.6,9.7q0,9.8,6.9,14.7c4.5,3.4,10.9,5.1,19.1,5.1,11.7,0,20.7-3.3,26.7-9.9s9.1-15.6,9.1-27V77.9A9.4,9.4,0,0,1,92.2,74.9Z"/>
  </g>
</svg>
