<svg xmlns="http://www.w3.org/2000/svg" xmlns:xlink="http://www.w3.org/1999/xlink"  preserveAspectRatio="none" width="119.5" height="144.4" viewBox="0 0 119.5 144.4">
  <defs>
    <style>
      .cls-1 {
        fill: url(#linear-gradient);
      }
    </style>
    <linearGradient id="linear-gradient" x1="59.76" y1="144.38" x2="59.76" gradientUnits="userSpaceOnUse">
      <stop offset="0.01"/>
      <stop offset="0.41" stop-color="red"/>
      <stop offset="1" stop-color="#e7ffd9"/>
    </linearGradient>
  </defs>
  <title>a</title>
  <g id="Layer_1" data-name="Layer 1">
    <path class="cls-1" d="M119.5,142a22.4,22.4,0,0,1-.3-3.4V52.4c0-18.4-4.8-31.7-14.5-40S81.1,0,63.1,0A74.9,74.9,0,0,0,40,3.3a55.1,55.1,0,0,0-17.8,9.5,47.3,47.3,0,0,0-12,14.7A51.5,51.5,0,0,0,4.5,46.3v.9H33v-.8a29.4,29.4,0,0,1,8.3-16.1c4.7-4.5,11.9-6.8,21.5-6.8s15.4,2,20.6,5.9a18.5,18.5,0,0,1,7.8,15.5c0,4.1-1.1,6.6-3.2,7.4a90.6,90.6,0,0,1-11.3,2.8L51.6,60.2c-7.7,1.6-14.7,3.3-21,5.2A53.4,53.4,0,0,0,14.3,73,33.9,33.9,0,0,0,3.7,85C1.2,89.8,0,96,0,103.5a38.4,38.4,0,0,0,3.7,17.2,35.3,35.3,0,0,0,10.5,12.8,48.6,48.6,0,0,0,15.7,8.1,69.6,69.6,0,0,0,19.8,2.8c10.7,0,19.4-1.5,26-4.3a49.9,49.9,0,0,0,17.1-12.3V142ZM92.2,80.5c-.1,1.6-.2,3.3-.5,5.3h0V86a75.9,75.9,0,0,1-3,12.5c-4.2,12.7-18,23-33,23-12.9,0-22.9-5.9-25.4-14.6a24.6,24.6,0,0,1-.4-4c0-4.1.9-7.3,2.6-9.7a18.8,18.8,0,0,1,7.6-6,54.4,54.4,0,0,1,12.7-4l18.1-3.8c4-.9,7.7-1.6,10.8-2.1s6.6-1.4,10.5-2.4Z"/>
  </g>
</svg>
